<?xml version="1.0" encoding="UTF-8"?>
<svg xmlns="http://www.w3.org/2000/svg" xmlns:svg="http://www.w3.org/2000/svg" xmlns:sodipodi="http://sodipodi.sourceforge.net/DTD/sodipodi-0.dtd" xmlns:rdf="http://www.w3.org/1999/02/22-rdf-syntax-ns#" xmlns:mapsvg="http://mapsvg.com" xmlns:inkscape="http://www.inkscape.org/namespaces/inkscape" xmlns:dc="http://purl.org/dc/elements/1.1/" xmlns:cc="http://creativecommons.org/ns#" version="1.1" viewBox="0 0 1106.1 205.2">
  <!-- Generator: Adobe Illustrator 29.8.9, SVG Export Plug-In . SVG Version: 2.1.1 Build 1)  -->
  <defs>
    <style>
      .st0 {
        fill: #fff;
      }
    </style>
  </defs>
  <g id="Layer_1" mapsvg:geoViewBox="43.454090 41.303028 46.630286 38.832890">
    <g>
      <g>
        <g>
          <path class="st0" d="M744.7,60.6c0,1.4-.2,2.8-.5,4.2-.7,2.7-1.8,5.3-2.9,7.9-1.2,2.5-2.5,4.9-3.9,7.3-5.8,9.8-13,18.6-20.8,26.7-2.8,2.9-5.9,5.9-9,8.7-.2.2-1.2,1.1-2.5,2.1l27.3-10.5s2,1.3-.4,2.7c-2.4,1.5-34.7,14.7-34.7,14.7-.4.2-.6.5-.7.6-1.8,1.5-3.7,3.1-5.4,4.6-2.2,1.9-4.5,3.7-6.6,5.4-1.9,1.5-4.2,4.2-6.9,3.4-2.5-.8-2.4-3.8-1.3-5.7.9-1.5,2.5-2.8,4-3.9,2.8-2,6.1-3.5,9.3-5.1.4-.2.8-.4,1.2-.6,1.8-.8,3.7-1.6,5.4-2.4l.2-.2c8.4-7.2,16.4-14.7,23.5-23,7.1-8,13.4-16.8,18.1-26.5,1.1-2.4,2-4.6,2.6-7.1.2-1.3.5-2.4.5-3.7s0-1.4-.1-1.8v-.2c0-.1,0-.4-.1-.5,0,0,0-.1-.1-.2.1.1,0,.1,0,0h0c0-.1-.1-.2-.1-.2s0,0,0,0c-.5,0-1.1.1-1.5.4-1.1.4-2.2,1.1-3.3,1.6-2.4,1.4-4.5,2.8-6.7,4.4-4.2,3.1-8.4,6.5-12.2,10-3.9,3.7-7.8,7.4-11.4,11.3-1.8,1.9-3.5,3.8-5.2,5.7-.1.1-.2.4-.4.5-2.2,3.5-4.4,7.2-6.6,10.7-4.2,7.2-8.4,14.4-12.5,21.6-2.7,4.9-5.4,9.9-8.1,14.8l-13.1,24.8c-.4.8-1.2,2.4-1.3,2.5-.2.4-.6.8-.9,1.2-.9.8-2.2.8-2.9-.2h-.1s0-.1-.1-.2c-.4-.8-.2-2.2-.1-3.3.6-4.1,2.2-8.1,3.8-12,1.2-2.6,2.4-5.2,3.5-7.8,2.4-5.1,4.9-10.1,7.8-15,5.5-9.9,11.8-19.2,18.7-28,3.1-4,6.4-8,9.8-11.8,2.5-4,4.9-7.9,7.4-11.9,1.1-1.9,2.1-3.7,3.2-5.4.5-.8.9-1.6,1.4-2.6.6-.8,1.2-1.6,1.6-2.6,2-3.7,4.1-7.2,6-11,.4-.9,1.5-1.1,2.4-.7.8.6.9,1.5.6,2.4-.5.9-.9,1.9-1.4,2.8-1.1,1.9-2.1,3.7-3.2,5.5-.5.8-.9,1.8-1.4,2.7-.5.8-1.1,1.6-1.5,2.5-1.2,2.1-2.3,4.1-3.5,6.1.4-.4.7-.7,1.2-1.1,4-3.9,8.1-7.7,12.5-11.1,4.4-3.4,9-6.7,14-9.2,1.3-.7,2.8-1.3,4.4-.9,1.4.2,2.4,1.2,2.8,2.5.5,1.2.5,2.6.5,3.8h0ZM683.5,112.5c-5.7,8-10.6,16.4-15.1,25.1-2.6,4.8-4.9,9.9-7.1,15-.5.8-.8,1.8-1.2,2.7,2.5-4.7,4.9-9.4,7.4-14.1,3.9-7.4,7.9-14.6,12-21.9,1.3-2.2,2.6-4.5,3.9-6.7h0ZM679.1,135.4h0c0,.1,0,0,0,0ZM685.7,129.8c-.7.4-1.4.7-2,1.2-.8.5-1.5.9-2.2,1.4,0,0-.2.2-.4.4-.1.1-.4.2-.5.4-.2.4-.5.6-.7.8s-.2.1-.2.2c-.1.1-.2.2-.2.4-.1.1-.2.4-.2.5.1,0,.4-.2.5-.2.4-.2.7-.6,1.1-.9,1.1-.8,2.1-1.6,3.1-2.5.7-.5,1.3-1.1,1.9-1.5h0Z"/>
          <path class="st0" d="M756.6,109.5l-24.7,18.1h-.1c-.6.6-3,2.1-4.4,1.6-.5-.1-.7-.4-.8-.6-.6-.8-.4-2.2-.1-2.8.4-1.3,1.1-2.6,1.6-3.8.6-.8,1.2-1.6,1.8-2.5.6-.9,5.7-8.5,6.8-10.1-6.2,2.2-4.2-2.4-4.2-2.4,0,0,1.3.7,4-.1,0,0,.8-.2,1.6-.2,2.6.1,2.6,1.9,2.4,2.9,0,0-.1.5-.6,1.2,0,0-.6.8-.9,1.4l-1.5,2.2c-.4.6-.8,1.3-1.3,1.9-.5.8-.9,1.5-1.5,2.2-.5.7-.8,1.3-1.3,2-.4.5-.7.9-.9,1.4-.5.6-.8,1.2-1.3,1.8-.1.2-.2.5-.5.8-.1.2-.2.5-.1.7l24.5-17.1.9-.7s.1,0,.1-.1l.6-.4s1.2,1.3,0,2.4h0Z"/>
          <path class="st0" d="M776,109.1c-.1.2-.4.5-.8.9-6.8,6.5-13.1,9.1-15.3,9.8,0,.1-.1.2-.2.4-.2.5-.5.8-.8,1.2-.5.6-.6.8-.6.8-.4.5-.8.9-1.2,1.4-1.1,1.2-2.2,2.4-3.5,3.3-1.5,1.2-3.2,2.5-5.2,2.1-1.6-.4-2.5-1.8-2.5-3.4-.1-1.4.5-2.8,1.2-4.1,1.4-2.9,3.3-5.8,5.5-8.1h.1c.4-1.5.9-2.9,1.8-4.1.9-1.4,2.2-2.8,4.1-2.8h.2c2.6.4,3.4,2.6,3.7,3.7.2.9.2,2,.1,2.9-.1.6-.1,1.1-.4,1.5,0,.2-.1.5-.2.7,0,.1-.1.6-.2.6,4-.6,13.8-8.7,13.8-8.7,0,0,1.3,1.1.5,2h0ZM753.1,118c-1.2,1.5-2.2,3.2-3.1,4.9-.2.2-.4.6-.5.8h0c-.1.4-.1.5-.2.6,0,.2-.1.5-.1.8,0-.4,0,.2,0,.4.1,0,.2-.1.4-.1,2.2-1.3,4.2-3.3,5.9-5.4-.9-.4-1.9-1.1-2.4-2h0ZM749.3,125.8l10-13.9c-1.3.9-2.3,1.9-3.4,3.1,0,0-.1.1-.1.2s.1.2.1.4h0c0,.2,0,.3.1.5h0c0,.1.1.2.1.3h.1c0,.1.1.2.1.2.1,0,.1.1.2.1-.2-.1.2.1.2.1h.4c.1.1.2.1.4.1h.1c.6-1.2,1.1-2.4,1.4-3.7.1-.6.2-.9.2-1.4l-10,13.9Z"/>
          <path class="st0" d="M806.7,74c2.5.6,1.3,3.9.7,5.3-2.3,5.3-5.9,10.4-9.4,14.8-2.7,3.5-5.5,6.6-8.2,10-4.7,5.4-8.7,10-8.7,10l-6.8,10-.2.4-1.1,1.6c-.8,1.3-1.9,3.1-1.8,3.3.1.1.4,0,.5-.1l1.3-1.1,26.1-21.2s.4.2.8.6c.9.7-.5,2-.5,2l-.8.9-9,7.9-16.3,13.3c-.6.5-1.2.7-1.9.9,0,0-1.2.6-2.5.2-.2-.1-.5-.2-.7-.4s-.5-.5-.7-.8c-.8-1.6.6-4,1.6-5.9,1.1-2.1,2.4-4.1,3.7-6.1.6-.8,1.1-1.5,1.5-2.4,0,.1-.1.1-.2.2-.2.1-.5.2-.7.5-.7.4-1.4.7-2.1.8-.8.4-1.9.5-2.7.1-.9-.4-1.1-1.4-1.1-2.2.1-.7.5-1.8,1.4-2.9,1.4-2,7.7-9.7,11.3-8.7.2.1.5.2.6.4.6.4.8.9.8,1.5v.4c0-.1.1-.1.1-.1.6-.8,1.1-1.6,1.6-2.5,1.2-1.5,2.2-3.2,3.3-4.7,1.5-2,3-4,4.4-6.1,1.5-2.1,3.1-4.2,4.6-6.5,2.6-3.8,5.3-7.5,7.9-11.3.2-.2.5-.6.7-.9.7-.7,1.5-1.5,2.4-1.3h0ZM778.6,110.2c-.4-.1-.6-.4-.8-.7l-.4.4c-.2.2-.5.5-.7.8-.6.5-1.1,1.1-1.5,1.5-1.1,1.1-2,2.1-2.8,3.2.9-.7,1.8-1.4,2.7-2.2,1.2-.9,2.4-2,3.5-2.9h0Z"/>
          <path class="st0" d="M824.7,109.7c-.7.6-1.4,1.2-2,1.8-.9.8-1.8,1.5-2.6,2.4-1.1.8-2,1.8-2.9,2.6-1.1.9-2,1.9-3.1,2.8-.9.8-1.9,1.6-2.8,2.6-.8.7-1.6,1.4-2.5,2.2-.7.6-1.3,1.2-2,1.8-.9.8-1.9,1.8-3.1,2.5-.8.6-1.8,1.1-2.7,1.4-.8.2-1.8.2-2.5-.4-.1,0-.1-.1-.2-.2s-.1-.2-.2-.2c-.2-.6-.5-1.3-.4-2.1.2-1.6,1.1-3.4,1.8-4.9-1.4,1.4-2.7,2.9-4.1,4.4-1.5,1.5-2.9,3.1-4.5,4.6-1.4,1.5-3.3,3.4-5.4,2.4-.7-.4-1.1-1.3-.8-2,.7-2,1.8-3.9,3-5.8,2.8-4.6,5.6-9.1,8.5-13.5l2.9-4.7h.2c.9,0,3.5.4,1.9,2.9-2,3.3-4,6.5-6,9.8-1.1,1.5-2,3.2-3.1,4.7,5.1-5.2,10-10.4,15.1-15.5.6-.7,1.5-.7,2.2-.1.7.5.8,1.4.5,2.1-1.5,3.1-3.4,5.9-5.2,8.7-.8,1.3-1.5,2.6-2.2,3.9-.2.7-.5,1.2-.7,1.8-.1.2-.2.6-.4.9l1.1-.9,22.1-18.3s1.5,1.3.1,2.6h0Z"/>
          <path class="st0" d="M832.7,120.5c-3.4,2.1-6.9,4.2-10.5,6.5-1.2.7-2.4,1.5-3.5,2.2-.9.6-2.1.9-3.3.7-2-.4-2.8-2.5-2.7-4.2,0-2.2,1.1-4.4,2-6.2.6-1.1,1.2-2.1,1.8-3.2,0,0,.1-.1.1-.2.7-.9,1.3-1.9,2-2.8.1-.1.4-.4.5-.6,1.3-1.6,3.1-3.7,4.7-5.1.2-.2.8-.6,1.4-.8.1,0,.1-.1.1-.1h.1c.8-.2,1.9-.5,3.4-.4.5.1.9.2,1.4.5.4.1,1.1.6,1.1,2,.1,1.2-.8,2.1-1.4,2.5-.8.6-1.8,1.1-2.8,1.3-.9.4-1.9-.2-2.1-1.2-.1,0-.1.1-.2.2-1.6,1.5-3.1,3.3-4.4,5.1-1.2,1.8-2.2,3.5-3.1,5.5-.5.8-.8,1.5-1.1,2.5,0,.1,0,.4-.1.5v1.3c.1,0,.1.1.1.1h.1c.1,0,.2-.1.2-.1,1.1-.5,2-1.2,3-1.8,1.1-.7,2.1-1.3,3.1-2,4.2-2.5,8.4-5.1,12.5-7.7,2.1-1.3,4.2-2.6,6.2-3.9.9-.6,2-1.2,3-1.9h.1c.6-.4,1.1-.7,1.6-1.1.1-.1.4-.1.5-.2h.1l.5-.4h.1c0-.1.6-.5.6-.5,0,0,1.4,2.6.1,3.3-2.8,2-12.4,8.4-15.2,10.1h0ZM816.1,126.6h.2-.1.1c0,.1,0,0,0,0h-.2Z"/>
          <path class="st0" d="M889.7,86.3c0,1.1-.8,1.6-1.8,1.8-3.9.4-7.8.8-11.7,1.3-4.6.5-9.2.9-13.7,1.5l-12.7,19.4c-1.3,1.8-2.6,3.7-3.8,5.4l-10.2,15.7,5.4-4.1,26.6-20.1s1.9,1.2.1,2.6l-31.4,25.4-.2.2c-1.5,1.2-4.6,3.2-6.1,2.2-1.5-.9-.5-3.3.4-4.5l.5-.7,27-41.1c-7.6.8-15.3,1.6-23,2.5-.9.1-1.8-.8-1.8-1.6s.8-1.6,1.8-1.8c3.9-.5,7.8-.8,11.7-1.3,4.6-.5,9.2-.9,13.8-1.5l6.9-10.5c0-.4.1-.6.2-.8.2-.7.8-1.3,1.5-1.6,1.4-.7,3.3.8,2.4,2.4-.5.6-.8,1.2-1.2,1.8l-5.4,8.4c7.7-.8,15.3-1.6,23-2.6.9,0,1.8.9,1.8,1.8h0Z"/>
          <path class="st0" d="M886.7,110.5l-11.5,9.2-3.2,2.7c-.5.4-2.2,1.6-2.5,1.8-.6.5-1.1.8-1.6,1.2-1.2.7-2.4,1.3-3.9,1.3s-2.7-.6-3.8-1.4c-1.3-1.2-1.9-2.7-1.6-4.1h0c.1-.8,1.3-4.8,10-14.8.1-.1.4-.2.5-.4.7-.4,1.6-.2,2.4.5.6.6.8,1.8.4,2.2-1.8,1.6-3.4,3.4-4.8,5.4-1.3,1.6-2.5,3.3-3.4,5.2-.5.7-1.1,1.6-1.4,2.6,0,.2-.1.5-.1.7q0,0,0,0c0,.1.1.1,0,.1h.1c.1.1.4.4.2.2.1.1.2.1.4.2h.5c.5,0,.6,0,1.2-.2.8-.2,1.8-.9,2.7-1.5.4-.4.8-.6,1.3-.9l17.5-12.7.5-.4.4-.2s1.9,1.6,0,3.4h0ZM878.3,95c0,.9-.8,1.8-1.6,1.8s-1.8-.8-1.8-1.8.8-1.8,1.8-1.8,1.6.8,1.6,1.8Z"/>
          <path class="st0" d="M906.1,109.1c-.1.2-.4.5-.8.9-6.8,6.5-13.1,9.1-15.3,9.8,0,.1-.1.2-.2.4-.2.5-.5.8-.8,1.2-.5.6-.6.8-.6.8-.4.5-.8.9-1.2,1.4-1.1,1.2-2.2,2.4-3.5,3.3-1.5,1.2-3.2,2.5-5.2,2.1-1.6-.4-2.5-1.8-2.5-3.4-.1-1.4.5-2.8,1.2-4.1,1.4-2.9,3.3-5.8,5.5-8.1h.1c.4-1.5.9-2.9,1.8-4.1.9-1.4,2.2-2.8,4.1-2.8h.2c2.6.4,3.4,2.6,3.7,3.7.2.9.2,2,.1,2.9-.1.6-.1,1.1-.4,1.5,0,.2-.1.5-.2.7,0,.1-.1.6-.2.6,4-.6,13.8-8.7,13.8-8.7,0,0,1.3,1.1.5,2h0ZM883.2,118c-1.2,1.5-2.2,3.2-3.1,4.9-.2.2-.4.6-.5.8h0c-.1.4-.1.5-.2.6,0,.2-.1.5-.1.8,0-.4,0,.2,0,.4.1,0,.2-.1.4-.1,2.2-1.3,4.2-3.3,5.9-5.4-.9-.4-1.9-1.1-2.4-2h0ZM879.3,125.8l10-13.9c-1.3.9-2.3,1.9-3.4,3.1,0,0-.1.1-.1.2s.1.2.1.4h0c0,.2,0,.3.1.5h0c0,.1.1.2.1.3h.1c0,.1.1.2.1.2.1,0,.1.1.2.1-.2-.1.2.1.2.1h.4c.1.1.2.1.4.1h.1c.6-1.2,1.1-2.4,1.4-3.7.1-.6.2-.9.2-1.4l-10,13.9Z"/>
          <path class="st0" d="M934.8,108.9c-.4.6-11.3,11-17,15.8l-2.5,2.1-.4.2c0,0-.2.2-.2.2-1.6,1.3-4.6,3.3-6.2,3.2-.1,0-.1-.1-.2-.1-.7-.1-1.1-.8-1.2-1.3-.2-1.2.1-2.7.5-3.9.2-.6.4-1.1.6-1.5,0-.1.1-.2.1-.2.5-1.2,1.1-2.4,1.8-3.4l3.7-6.2-18.4,16.3c-.6.5-1.1.7-1.2.8-.5.2-.9.4-1.5.4h0c-.2.1-.5,0-.6,0h-.1c0-.1-.1-.1-.2-.2-.4-.4-.4-.9-.4-1.4.1-.1.1-.5.5-.9l4.2-6.4,9.5-15.1s1.1,0,1.6.2c0,0,.2,0,.2.1.7.4,1.1,1.2,0,2.9l-.6,1.1c-.1.1-.2.2-.2.4-.2.2-.4.5-.6.8-.6.8-1.1,1.8-1.6,2.6l-2.4,3.7-1.2,1.8h.1l-.7,1.1,13.3-11.9c.2-.2.7-.6,1.4-.8.6-.1,1.3,0,2,.5,1.1.6.8,2.4.6,3.3-.8,2.7-2.2,5.1-3.8,7.4-.5.7-.9,1.5-1.3,2.2-.2.4-.5.7-.7,1.2,0,0-.1.2-.1.4-.1.1-.2.4-.2.4-.2.6-.4,1.2-.6,1.8l4.5-3.5,6.7-5.4,9.3-7.8,1.3-1.1,1.5-1.2s1.1,1.1.6,1.8h0Z"/>
        </g>
        <g>
          <path class="st0" d="M32.4,101.4c4.7,1.6,7,4.8,7,9.8s-.6,4.5-1.9,6.3c-1.2,1.8-2.9,3.1-5,3.8-2.1.7-5.1,1.1-9,1.1H0v-.9c.7-.2,1.3-.5,1.5-.8s.4-.9.4-1.7v-33.4c0-.8-.1-1.4-.4-1.8-.3-.3-.8-.6-1.5-.8v-.9h24.1c2.4,0,4.3.2,5.9.6,1.5.4,2.9,1,4.1,1.9,2.7,2,4.1,4.8,4.1,8.4s-1.9,6.7-5.7,8.6h0ZM6.5,99.5h15.6c2.2,0,3.9,0,5-.2s2.1-.4,3-.8c1.1-.5,2-1.2,2.7-2.2.6-1,.9-2.1.9-3.4s-.6-3.2-1.7-4.4c-.9-1-2.1-1.6-3.5-2-1.5-.4-3.7-.5-6.7-.5H6.5v13.6h0ZM6.5,118.6h16.2c2.3,0,4.1,0,5.2-.2,1.1-.1,2.2-.4,3.1-.9,1.2-.6,2.1-1.4,2.8-2.5.7-1.1,1-2.4,1-3.8s-.6-3.6-1.7-4.9c-1-1.1-2.2-1.9-3.7-2.3-1.5-.4-3.8-.6-6.9-.6H6.5v15.3h0Z"/>
          <path class="st0" d="M93.2,111.1h-21.6l-3.6,7.7c-.3.7-.5,1.2-.5,1.5,0,.6.6,1,1.8,1.2v.9h-9v-.9c.8-.1,1.4-.4,1.9-.9.4-.5,1-1.4,1.7-3l14.8-31.9c.4-.8.5-1.3.5-1.6,0-.5-.5-.9-1.5-1.2v-.9h9.8v.9c-1,.3-1.5.7-1.5,1.2s.2.7.5,1.5l14.2,30.8c1,2.3,1.7,3.6,2.1,4,.3.4,1.1.7,2.2,1v.9h-9.6v-.9c1.1-.2,1.7-.6,1.7-1.3s-.2-.9-.7-1.8l-3.3-7.3h0ZM91.5,107.2l-9.1-20-9.1,20h18.2Z"/>
          <path class="st0" d="M167.7,85.5l-4.4,7.3-.8-.5c.2-.6.3-1.1.3-1.4,0-.8-1.3-1.8-3.8-3-3.5-1.7-7.3-2.5-11.4-2.5s-10,1.5-13.4,4.6c-3.5,3.1-5.2,7.1-5.2,12.1s1.8,9,5.4,12.3c3.5,3.2,7.8,4.8,13,4.8s9.5-1.5,13.3-4.4c1.7-1.3,2.6-2.3,2.6-2.8s-.2-.7-.5-1.4l.7-.6,5.3,6.4-.7.6c-.6-.5-1-.7-1.4-.7s-.6.2-1.1.6c-1.8,1.4-3.3,2.4-4.5,3.1-1.2.7-2.5,1.3-3.9,1.7-2.9,1-6.2,1.5-9.7,1.5-6.8,0-12.3-1.9-16.6-5.7-4.5-4-6.7-9-6.7-15.2s1.4-9.1,4.2-12.6c4.4-5.6,10.9-8.3,19.7-8.3s11.4,1.5,16.8,4.6c.4.2.6.3.7.3.3,0,.7-.4,1.4-1.1l.8.4h0Z"/>
          <path class="st0" d="M200.1,106.9v12c0,.8.1,1.4.4,1.7.3.3.8.6,1.5.8v.9h-8.4v-.9c.7-.2,1.3-.5,1.5-.8s.4-.9.4-1.7v-33.4c0-.8-.1-1.4-.4-1.8s-.8-.6-1.5-.8v-.9h8.4v.9c-.7.2-1.3.5-1.5.8s-.4.9-.4,1.7v16.8l21.8-17.1c.8-.6,1.2-1.1,1.2-1.5s-.4-.7-1.1-.8v-.9h10.7v.9c-1.2,0-2.3.6-3.5,1.5l-16.4,12.7,18.1,22.9c.4.6.8.9,1.2,1.1s.9.3,1.7.3v.9h-9.9v-.9c.8-.2,1.3-.5,1.3-.9s-.4-.9-1.3-2l-14.6-18.7-9.1,7h0Z"/>
          <path class="st0" d="M296.7,85.9l-4.5,7.2-.8-.5c.4-.6.5-1,.5-1.3,0-.6-1.1-1.5-3.2-2.6-4.1-2.2-8.2-3.3-12.5-3.3s-9.1,1.4-12.5,4.2c-3.9,3.2-5.8,7.4-5.8,12.8s1.9,9.4,5.6,12.5c3.4,2.9,7.8,4.3,13.1,4.3s5.5-.4,8-1.3c2.5-.9,4.7-2.1,6.4-3.7v-7.5h-9.6c-.8,0-1.4.1-1.8.4s-.6.8-.8,1.5h-.9v-7.6h.9c.2.7.4,1.3.8,1.5s.9.4,1.8.4h15.9v.9c-.7.2-1.3.5-1.5.8s-.4.9-.4,1.7v5.2c0,.8.1,1.4.4,1.7.3.3.8.6,1.5.8v.8c-2.2,2-4.3,3.5-6.3,4.6-4.3,2.4-9.2,3.6-14.7,3.6s-12.2-1.8-16.4-5.5c-2.1-1.8-3.7-3.9-4.9-6.5-1.4-2.9-2-5.9-2-9.1,0-4.6,1.3-8.6,4-12.1,2.5-3.3,5.8-5.6,9.9-7.1,2.9-1,6.1-1.6,9.5-1.6s5.7.4,8.2,1.1c2.5.7,5.2,1.9,8.2,3.5.8.5,1.4.7,1.6.7.3,0,.8-.4,1.5-1.2l.8.5h0Z"/>
          <path class="st0" d="M329.7,104.3v14.7c0,.8.1,1.4.4,1.7s.8.6,1.5.8v.9h-8.4v-.9c.7-.2,1.3-.5,1.5-.8.3-.3.4-.9.4-1.7v-33.4c0-.8-.1-1.4-.4-1.8-.3-.3-.8-.6-1.5-.8v-.9h22.2c3,0,5.4.2,7.2.5,1.8.3,3.3.9,4.6,1.7,1.3.8,2.4,2,3.3,3.4.9,1.6,1.4,3.5,1.4,5.5,0,3.1-1,5.6-3.1,7.5-2,1.9-4.8,3.1-8.4,3.3l10.3,16c.6,1,1.5,1.5,2.7,1.5v.9h-9.4v-.9c1-.2,1.5-.4,1.5-.8s-.3-.8-1-1.9l-9.2-14.5h-15.4ZM329.7,100.4h16.4c2.2,0,3.9,0,5-.3,1.1-.2,2.1-.5,3-1,2-1.2,3-3.2,3-6s-1-4.8-3.1-6c-.9-.5-2-.9-3.1-1-1.1-.2-2.9-.3-5.3-.3h-16v14.5h0Z"/>
          <path class="st0" d="M410.4,81.3c7.1,0,12.9,1.9,17.2,5.6,2.4,2.1,4.3,4.6,5.5,7.6,1,2.5,1.5,5.1,1.5,8s-1.1,7.5-3.3,10.8c-2.4,3.7-5.8,6.4-10,8-3.2,1.2-6.8,1.8-10.9,1.8-7.1,0-12.8-1.9-17.1-5.6-2.4-2.1-4.3-4.6-5.5-7.6-1-2.4-1.5-5-1.5-7.7,0-4,1.1-7.7,3.3-11.1,2.4-3.7,5.7-6.3,10.1-8,3-1.2,6.6-1.8,10.8-1.8h0ZM410.4,85.4c-6.1,0-10.9,1.7-14.4,5.1-3.2,3.1-4.9,7-4.9,11.8s1.6,8.7,4.9,11.8c3.5,3.4,8.3,5.1,14.4,5.1s11-1.7,14.5-5.1c3.2-3.1,4.8-7,4.8-11.5s-1.6-9-4.8-12c-1.9-1.8-4-3.1-6.2-3.8-2.4-.8-5.2-1.3-8.3-1.3h0Z"/>
          <path class="st0" d="M466.5,85.5v22.3c0,2.6.1,4.5.4,5.6.3,1.1.8,2,1.7,2.8,2.1,1.9,6,2.8,11.8,2.8s10.4-1.1,12.3-3.3c.7-.7,1.1-1.6,1.3-2.7s.3-2.8.3-5.2v-22.3c0-.8-.1-1.4-.4-1.7s-.8-.6-1.5-.8v-.9h8v.9c-.7.2-1.3.4-1.5.8s-.4.9-.4,1.8v23.3c0,2.9-.3,5-.8,6.5-1,2.7-3,4.7-5.8,5.9-2.8,1.3-6.7,1.9-11.8,1.9-7.5,0-12.6-1.5-15.4-4.4-1.1-1.2-1.9-2.5-2.4-4-.4-1.5-.7-3.5-.7-6v-23.3c0-.8-.1-1.4-.4-1.8-.3-.3-.8-.6-1.5-.8v-.9h8.4v.9c-.7.2-1.3.5-1.5.8-.3.3-.4.9-.4,1.7h0Z"/>
          <path class="st0" d="M532.9,87.1v31.8c0,.8.1,1.4.4,1.7.3.3.8.6,1.5.8v.9h-8v-.9c.8-.2,1.3-.5,1.5-.8s.4-.9.4-1.7v-33.4c0-.8-.1-1.4-.4-1.8-.3-.3-.8-.6-1.5-.8v-.9h11.6v.9c-.9.3-1.4.8-1.4,1.3s.5,1.1,1.4,2.2l24.4,28.5v-29.5c0-.8-.1-1.4-.4-1.8-.3-.3-.8-.6-1.5-.8v-.9h8v.9c-.7.2-1.3.4-1.5.8s-.4.9-.4,1.8v33.4c0,.8.1,1.4.4,1.7s.8.6,1.5.8v.9h-9.3v-.9c.9-.2,1.4-.6,1.4-1.2s-.4-1.1-1.2-2.1l-26.8-31h0Z"/>
          <path class="st0" d="M597.8,119.3v-34.2c0-.6-.1-1-.4-1.4-.3-.3-.8-.6-1.5-.8v-.9h21.3c4.8,0,8.5.7,11.1,2,3.2,1.7,5.7,4.3,7.4,7.8,1.5,3.1,2.2,6.5,2.2,10.4s-1,8.6-3,11.9c-1.8,3-4.1,5.1-6.8,6.4-2.8,1.3-6.4,1.9-10.9,1.9h-21.3v-.9c.7-.2,1.2-.5,1.5-.8.3-.3.4-.8.4-1.4h0ZM602.5,118.6h14.6c4.3,0,7.5-.7,9.5-2,2.4-1.6,4.2-4,5.4-7.3.7-2.2,1.1-4.5,1.1-7.1,0-4.7-1.2-8.6-3.6-11.7-1.3-1.7-2.9-2.9-4.8-3.6-1.9-.7-4.4-1.1-7.6-1.1h-14.6v32.7Z"/>
        </g>
      </g>
      <g>
        <path class="st0" d="M964.6,0c7.2,15.6,13.9,31.4,20.4,47.2,6.5,15.8,12.9,31.7,19,47.7l.4,1.1-.4,1.2c-3.1,9.1-6.4,18.2-9.7,27.3-3.2,9.1-6.7,18.1-10.1,27.1-7,18-14,36-22,53.6,4.9-18.7,10.7-37.1,16.6-55.5,3.1-9.1,6-18.3,9.2-27.4,3.1-9.1,6.3-18.2,9.6-27.3v2.3c-6-16-11.7-32.2-17.3-48.3-5.6-16.2-11-32.4-15.9-48.9h0Z"/>
        <path class="st0" d="M957.2,22.3c10.1-1.4,20.1-2.1,30.2-2.6,10.1-.5,20.1-.7,30.2-.8,10.1,0,20.1.2,30.2.7,10.1.5,20.1,1.2,30.2,2.6-10.1,1.4-20.1,2.1-30.2,2.6-10.1.5-20.1.7-30.2.7-10.1,0-20.1-.2-30.2-.8-10.1-.5-20.1-1.2-30.2-2.6h0Z"/>
        <path class="st0" d="M1057.3,13c-5.7,10.9-12,21.5-18.5,31.9-6.5,10.5-13.2,20.7-20.1,30.9-7,10.1-14,20.2-21.3,30.1-7.3,9.9-14.8,19.6-22.9,29,5.7-10.9,12-21.5,18.5-31.9,6.5-10.5,13.2-20.7,20.1-30.9,7-10.1,14-20.2,21.3-30,7.3-9.9,14.8-19.6,22.9-29h0Z"/>
        <path class="st0" d="M970.9,63.3c11.9,10.9,23.2,22.2,34.4,33.7,11.2,11.5,22.2,23.2,33,35,10.8,11.9,21.5,23.8,31.9,36,10.5,12.2,20.7,24.5,30.5,37.2-11.9-10.9-23.2-22.2-34.4-33.7-11.2-11.5-22.2-23.2-33-35-10.8-11.9-21.5-23.8-31.9-36-10.5-12.2-20.7-24.5-30.6-37.2h0Z"/>
        <path class="st0" d="M952.5,183.2c12.8-1.4,25.6-2.1,38.4-2.6,12.8-.5,25.6-.7,38.4-.8,12.8,0,25.6.2,38.4.7,12.8.5,25.6,1.2,38.4,2.6-12.8,1.4-25.6,2.1-38.4,2.6-12.8.5-25.6.7-38.4.7-12.8,0-25.6-.2-38.4-.8-12.8-.5-25.6-1.2-38.4-2.6h0Z"/>
      </g>
    </g>
  </g>
</svg>