<?xml version="1.0" encoding="UTF-8"?>
<svg id="Layer_1" data-name="Layer 1" xmlns="http://www.w3.org/2000/svg" viewBox="0 0 1080 1080">
  <defs>
    <style>
      .cls-2 {
        stroke-width: 0px;
      }

      .cls-2 {
        fill: #fff;
      }
    </style>
  </defs>
  <g transform="translate(0 -181.71)">
    <g>
      <path class="cls-2" d="M696.21,705.75c0,1.71-.29,3.43-.57,5.14-.86,3.29-2.14,6.43-3.57,9.57-1.43,3-3,6-4.71,8.86-7,11.86-15.72,22.57-25.29,32.43-3.43,3.57-7.14,7.14-10.86,10.57-.28.29-1.43,1.29-3,2.57l33.14-12.71s2.43,1.57-.43,3.29c-2.86,1.86-42.15,17.86-42.15,17.86-.43.29-.72.57-.86.71-2.15,1.86-4.43,3.72-6.57,5.57-2.72,2.28-5.43,4.43-8,6.57-2.29,1.86-5.14,5.14-8.43,4.14-3-1-2.86-4.57-1.57-6.86,1.14-1.86,3-3.43,4.86-4.72,3.43-2.43,7.43-4.29,11.29-6.14.43-.28,1-.43,1.43-.71,2.14-1,4.43-2,6.57-2.86l.29-.29c10.14-8.71,19.86-17.86,28.57-27.86,8.57-9.72,16.29-20.43,22-32.15,1.29-2.86,2.43-5.57,3.15-8.57.28-1.57.57-2.86.57-4.43,0-.71,0-1.71-.14-2.14v-.28c0-.14,0-.43-.14-.57,0,0,0-.14-.14-.29.14.14,0,.14,0,0v-.14q-.14,0-.14-.14t0,0c-.57,0-1.29.14-1.86.43-1.29.43-2.72,1.29-4,2-2.86,1.71-5.43,3.43-8.15,5.29-5.14,3.71-10.14,7.86-14.86,12.14-4.72,4.43-9.43,9-13.86,13.72-2.14,2.29-4.29,4.57-6.29,6.86-.14.14-.29.43-.43.57-2.72,4.29-5.29,8.71-8,13-5.14,8.71-10.14,17.43-15.14,26.15-3.28,6-6.57,12-9.86,18l-15.86,30.15c-.43,1-1.43,2.86-1.57,3-.29.43-.71,1-1.14,1.43-1.14,1-2.72,1-3.57-.28h-.14s0-.14-.14-.29c-.43-1-.29-2.72-.14-4,.71-5,2.72-9.86,4.57-14.57,1.43-3.15,2.86-6.29,4.29-9.43,2.86-6.14,6-12.29,9.43-18.14,6.72-12,14.29-23.29,22.72-34.01,3.71-4.86,7.71-9.72,11.85-14.29,3-4.86,6-9.57,9.01-14.43,1.29-2.29,2.57-4.43,3.86-6.57.57-1,1.14-2,1.71-3.14.72-1,1.43-2,2-3.14,2.43-4.43,5-8.72,7.28-13.29.43-1.14,1.86-1.29,2.86-.86,1,.71,1.14,1.86.71,2.86-.57,1.14-1.14,2.28-1.71,3.43-1.29,2.28-2.57,4.43-3.86,6.71-.57,1-1.14,2.14-1.72,3.29-.57,1-1.29,2-1.86,3-1.42,2.57-2.85,5-4.28,7.43.43-.43.86-.86,1.43-1.29,4.86-4.72,9.86-9.29,15.14-13.43s10.86-8.15,17-11.14c1.57-.86,3.43-1.57,5.29-1.14,1.72.28,2.86,1.43,3.43,3,.57,1.43.57,3.14.57,4.57ZM621.91,768.76c-6.86,9.72-12.86,19.86-18.29,30.43-3.15,5.86-6,12-8.58,18.14-.57,1-1,2.14-1.43,3.29,3-5.71,6-11.43,9.01-17.15,4.71-9,9.57-17.71,14.57-26.57,1.57-2.72,3.15-5.43,4.72-8.14ZM616.62,796.48v.14-.14ZM624.62,789.76c-.86.43-1.72.86-2.43,1.43-1,.57-1.86,1.14-2.72,1.72,0,0-.29.28-.43.43-.14.14-.43.29-.57.43-.28.43-.57.71-.86,1-.14.14-.29.14-.29.28-.14.14-.28.29-.28.43-.14.14-.29.43-.29.57.14,0,.43-.29.57-.29.43-.28.86-.71,1.29-1.14,1.29-1,2.57-2,3.71-3,.86-.57,1.57-1.29,2.29-1.86ZM691.49,702.18"/>
      <path class="cls-2" d="M710.63,765.04l-30,22-.14.14c-.72.57-3.58,2.43-5.29,1.86-.57-.14-.86-.43-1-.71-.71-1-.43-2.72-.14-3.43.43-1.57,1.29-3.14,2-4.57.72-1,1.43-2,2.14-3,.72-1.14,6.86-10.29,8.29-12.29-7.57,2.72-5.14-2.86-5.14-2.86,0,0,1.57.86,4.86-.14,0,0,1-.29,2-.29,3.14.14,3.14,2.29,2.86,3.57,0,0-.14.57-.72,1.43,0,0-.71,1-1.14,1.71l-1.86,2.72c-.43.71-1,1.57-1.57,2.28-.57,1-1.15,1.86-1.86,2.72-.57.86-1,1.57-1.57,2.43-.43.57-.86,1.14-1.14,1.71-.57.71-1,1.43-1.57,2.14-.14.28-.28.57-.57,1-.14.29-.29.57-.14.86l29.72-20.72,1.14-.86s.14,0,.14-.14l.72-.43s1.42,1.57,0,2.86Z"/>
      <path class="cls-2" d="M734.19,764.61c-.14.28-.43.57-1,1.14-8.29,7.86-15.86,11-18.58,11.86,0,.14-.14.29-.29.43-.29.57-.57,1-1,1.43-.57.71-.72,1-.72,1-.43.57-1,1.14-1.42,1.71-1.29,1.43-2.72,2.86-4.29,4-1.86,1.43-3.86,3-6.29,2.57-2-.43-3-2.14-3-4.14-.14-1.71.57-3.43,1.43-5,1.72-3.57,4-7,6.72-9.86l.14-.14c.43-1.71,1.14-3.43,2.14-4.86,1.14-1.72,2.72-3.43,5-3.43h.29c3.15.43,4.14,3.14,4.43,4.43.28,1.14.28,2.43.14,3.57-.14.71-.14,1.29-.43,1.86,0,.28-.14.57-.29.86,0,.14-.14.71-.29.71,4.86-.71,16.72-10.57,16.72-10.57,0,0,1.57,1.29.57,2.43ZM706.47,775.47c-1.43,1.86-2.72,3.86-3.71,6-.29.29-.43.71-.57,1v.14c-.14.29-.14.43-.28.57,0,.29-.14.57-.14,1,0-.43,0,.29,0,.43.14,0,.29-.14.43-.14,2.72-1.57,5.15-4,7.15-6.57-1.14-.43-2.28-1.29-2.86-2.43ZM701.76,784.9,713.9,768.04c-1.57,1.14-2.85,2.28-4.14,3.71,0,0-.14.14-.14.29s.14.28.14.43v.14c0,.14,0,.28.14.43v.14s.14.14.14.28l.14.14.14.14c.14,0,.14.14.29.14-.29-.14.29.14.29.14h.43c.14.14.29.14.43.14h.14c.71-1.43,1.29-2.86,1.72-4.43.14-.71.28-1.14.28-1.71Z"/>
      <path class="cls-2" d="M771.48,722.04c3,.71,1.57,4.72.86,6.43-2.85,6.43-7.14,12.57-11.43,18-3.28,4.29-6.72,8-10,12.14-5.72,6.57-10.57,12.15-10.57,12.15l-8.29,12.14-.29.43-1.29,2c-1,1.57-2.28,3.72-2.14,4,.14.14.43,0,.57-.14l1.57-1.29,31.72-25.72s.43.28,1,.71c1.14.86-.57,2.43-.57,2.43l-1,1.14-10.86,9.57-19.72,16.15c-.71.57-1.43.86-2.28,1.14,0,0-1.43.71-3,.29-.29-.14-.57-.29-.86-.43-.29-.14-.57-.57-.86-1-1-2,.72-4.86,2-7.14,1.29-2.57,2.86-5,4.43-7.43.72-1,1.29-1.86,1.86-2.86,0,.14-.14.14-.29.29-.29.14-.57.29-.86.57-.86.43-1.72.86-2.57,1-1,.43-2.28.57-3.29.14-1.14-.43-1.29-1.71-1.29-2.72.14-.86.57-2.14,1.72-3.57,1.72-2.43,9.29-11.72,13.72-10.57.28.14.57.29.71.43.71.43,1,1.14,1,1.86v.43c0-.14.14-.14.14-.14.72-1,1.29-2,2-3,1.42-1.86,2.71-3.86,4-5.71,1.86-2.43,3.58-4.86,5.29-7.43,1.86-2.57,3.72-5.14,5.57-7.86,3.15-4.57,6.43-9.14,9.57-13.72.29-.29.57-.71.86-1.14.86-.86,1.86-1.86,2.86-1.57ZM737.33,765.9c-.43-.14-.71-.43-1-.86l-.43.43c-.29.28-.57.57-.86,1-.72.57-1.29,1.29-1.86,1.86-1.29,1.29-2.43,2.57-3.43,3.86,1.14-.86,2.14-1.71,3.28-2.71,1.43-1.14,2.86-2.43,4.29-3.57Z"/>
      <path class="cls-2" d="M793.33,765.33c-.86.71-1.72,1.43-2.43,2.14-1.14,1-2.14,1.86-3.15,2.86-1.29,1-2.43,2.14-3.57,3.14-1.29,1.14-2.43,2.29-3.71,3.43-1.14,1-2.28,2-3.43,3.14-1,.86-2,1.72-3,2.72-.86.71-1.57,1.43-2.43,2.14-1.14,1-2.28,2.14-3.71,3-1,.71-2.15,1.29-3.29,1.72-1,.28-2.14.28-3-.43-.14,0-.14-.14-.28-.28-.14-.14-.14-.29-.29-.29-.29-.71-.57-1.57-.43-2.57.29-2,1.29-4.14,2.15-6-1.72,1.72-3.29,3.57-5,5.29-1.85,1.86-3.57,3.72-5.43,5.57-1.72,1.86-4,4.14-6.57,2.86-.86-.43-1.29-1.57-1-2.43.86-2.43,2.15-4.72,3.58-7,3.43-5.57,6.85-11,10.29-16.43l3.57-5.71h.29c1.14,0,4.28.43,2.28,3.57-2.43,4-4.86,7.86-7.28,11.86-1.29,1.86-2.43,3.86-3.72,5.71,6.15-6.29,12.15-12.57,18.29-18.86.72-.86,1.86-.86,2.72-.14.86.57,1,1.72.57,2.57-1.86,3.72-4.14,7.14-6.29,10.57-1,1.57-1.86,3.14-2.72,4.72-.29.86-.57,1.43-.86,2.14-.14.28-.28.71-.43,1.14l1.29-1.14,26.86-22.15s1.86,1.57.14,3.14Z"/>
      <path class="cls-2" d="M803.04,778.47c-4.14,2.57-8.43,5.14-12.71,7.86-1.43.86-2.86,1.86-4.29,2.72-1.14.71-2.57,1.14-4,.86-2.43-.43-3.43-3-3.29-5.14,0-2.72,1.29-5.29,2.43-7.57.72-1.29,1.43-2.57,2.15-3.86,0,0,.14-.14.14-.29.86-1.14,1.57-2.28,2.43-3.43.14-.14.43-.43.57-.71,1.57-2,3.71-4.43,5.72-6.14.29-.29,1-.71,1.71-1,.14,0,.14-.14.14-.14h.14c1-.29,2.28-.57,4.14-.43.57.14,1.14.29,1.72.57.43.14,1.29.71,1.29,2.43.14,1.43-1,2.57-1.72,3-1,.71-2.14,1.29-3.43,1.57-1.14.43-2.29-.29-2.57-1.43-.14,0-.14.14-.29.28-2,1.86-3.71,4-5.29,6.14-1.43,2.14-2.72,4.29-3.71,6.72-.57,1-1,1.86-1.29,3,0,.14,0,.43-.14.57v1.57c.14,0,.14.14.14.14h.14c.14,0,.28-.14.28-.14,1.29-.57,2.43-1.43,3.58-2.14,1.29-.86,2.57-1.57,3.71-2.43,5.14-3,10.14-6.14,15.14-9.29,2.57-1.57,5.14-3.14,7.57-4.72,1.15-.71,2.43-1.43,3.58-2.28h.14c.71-.43,1.29-.86,2-1.29.14-.14.43-.14.57-.29h.14l.57-.43.14-.14.71-.43s1.72,3.14.14,4c-3.43,2.43-15,10.14-18.43,12.29ZM782.9,785.9,783.18,785.9h-.14l.14.14v-.14Z"/>
      <path class="cls-2" d="M872.19,736.9c0,1.29-1,2-2.14,2.14-4.72.43-9.43,1-14.14,1.57-5.57.57-11.15,1.14-16.58,1.86l-15.43,23.58c-1.57,2.14-3.15,4.43-4.57,6.57l-12.43,19,6.57-5,32.29-24.43s2.29,1.43.14,3.14l-38.15,30.86c-.14.14-.28.28-.28.28-1.86,1.43-5.57,3.86-7.43,2.72-1.85-1.14-.57-4,.43-5.43l.57-.86,32.71-49.87c-9.28,1-18.57,2-27.86,3-1.14.14-2.15-1-2.15-2,0-1.29,1-2,2.15-2.14,4.71-.57,9.43-1,14.14-1.57,5.57-.57,11.14-1.14,16.72-1.86l8.43-12.72c0-.43.14-.71.29-1,.28-.86,1-1.57,1.85-2,1.72-.86,4,1,2.86,2.86-.57.71-1,1.43-1.43,2.14l-6.57,10.15c9.29-1,18.58-2,27.86-3.14,1.14,0,2.14,1.14,2.14,2.14Z"/>
      <path class="cls-2" d="M868.47,766.33l-14.01,11.14-3.86,3.29c-.57.43-2.72,2-3,2.14-.72.57-1.29,1-2,1.43-1.43.86-2.86,1.57-4.71,1.57-1.43,0-3.29-.71-4.57-1.71-1.57-1.43-2.28-3.29-2-5v-.14c.14-.86,1.57-5.71,12.14-17.86.14-.14.43-.28.57-.43.86-.43,2-.29,2.86.57.71.71,1,2.14.43,2.72-2.15,2-4.14,4.14-5.86,6.57-1.57,2-3,4-4.14,6.29-.57.86-1.29,2-1.72,3.14q-.14.43-.14.86,0-.14,0,0s.14.14,0,.14h.14c.14.14.43.43.29.28.14.14.29.14.43.29h.57c.57,0,.72,0,1.43-.29,1-.28,2.15-1.14,3.29-1.86.43-.43,1-.71,1.57-1.14l21.29-15.43.57-.43.43-.28s2.28,2,0,4.14ZM858.32,747.47c0,1.14-1,2.14-2,2.14-1.14,0-2.14-1-2.14-2.14s1-2.14,2.14-2.14c1,0,2,1,2,2.14Z"/>
      <path class="cls-2" d="M892.03,764.61c-.14.28-.43.57-1,1.14-8.29,7.86-15.86,11-18.58,11.86,0,.14-.14.29-.29.43-.29.57-.57,1-1,1.43-.57.71-.72,1-.72,1-.43.57-1,1.14-1.42,1.71-1.29,1.43-2.72,2.86-4.29,4-1.86,1.43-3.86,3-6.29,2.57-2-.43-3-2.14-3-4.14-.14-1.71.57-3.43,1.43-5,1.72-3.57,4-7,6.72-9.86l.14-.14c.43-1.71,1.14-3.43,2.14-4.86,1.14-1.72,2.72-3.43,5-3.43h.29c3.15.43,4.14,3.14,4.43,4.43.28,1.14.28,2.43.14,3.57-.14.71-.14,1.29-.43,1.86,0,.28-.14.57-.29.86,0,.14-.14.71-.29.71,4.86-.71,16.72-10.57,16.72-10.57,0,0,1.57,1.29.57,2.43ZM864.32,775.47c-1.43,1.86-2.72,3.86-3.71,6-.29.29-.43.71-.57,1v.14c-.14.29-.14.43-.28.57,0,.29-.14.57-.14,1,0-.43,0,.29,0,.43.14,0,.29-.14.43-.14,2.72-1.57,5.15-4,7.15-6.57-1.14-.43-2.28-1.29-2.86-2.43ZM859.6,784.9,871.74,768.04c-1.57,1.14-2.85,2.28-4.14,3.71,0,0-.14.14-.14.29s.14.28.14.43v.14c0,.14,0,.28.14.43v.14s.14.14.14.28l.14.14.14.14c.14,0,.14.14.29.14-.29-.14.29.14.29.14h.43c.14.14.29.14.43.14h.14c.71-1.43,1.29-2.86,1.72-4.43.14-.71.28-1.14.28-1.71Z"/>
      <path class="cls-2" d="M926.89,764.33c-.43.71-13.72,13.29-20.57,19.15l-3,2.57-.43.29q-.14.14-.29.28c-2,1.57-5.57,4-7.57,3.86-.14,0-.14-.14-.29-.14-.86-.14-1.29-1-1.42-1.57-.29-1.43.14-3.29.57-4.72.29-.71.43-1.29.72-1.86,0-.14.14-.29.14-.29.57-1.43,1.29-2.86,2.15-4.14l4.43-7.57-22.28,19.72c-.72.57-1.29.86-1.43,1-.57.28-1.15.43-1.86.43v.14c-.29,0-.57-.14-.71-.14h-.14c0-.14-.14-.14-.29-.29-.43-.43-.43-1.14-.43-1.71.14-.14.14-.57.57-1.14l5.14-7.71,11.57-18.29s1.29,0,2,.28q.14,0,.29.14c.86.43,1.29,1.43,0,3.57l-.71,1.29c-.14.14-.29.28-.29.43-.29.28-.43.57-.71,1-.72,1-1.29,2.14-2,3.15l-2.86,4.43-1.43,2.14h.14l-.86,1.29,16.15-14.43c.28-.29.86-.71,1.71-1,.72-.14,1.57,0,2.43.57,1.29.71,1,2.86.72,4-1,3.29-2.72,6.14-4.57,9-.57.86-1.14,1.86-1.57,2.72-.29.43-.57.86-.86,1.43,0,0-.14.29-.14.43-.14.14-.28.43-.28.43-.29.71-.43,1.43-.72,2.14l5.43-4.29,8.15-6.57,11.29-9.43,1.57-1.29,1.85-1.43s1.29,1.29.72,2.14Z"/>
    </g>
    <g>
    </g>
    <g>
      <path class="cls-2" d="M192.32,632.22c5.7,1.92,8.55,5.87,8.55,11.85,0,2.9-.77,5.45-2.3,7.65-1.51,2.18-3.54,3.72-6.1,4.61-2.56.9-6.21,1.35-10.95,1.35h-28.55v-1.15c.91-.24,1.52-.56,1.83-.97.31-.41.47-1.11.47-2.12v-40.54c0-1.01-.16-1.72-.47-2.14-.31-.42-.92-.74-1.83-.95v-1.15h29.23c2.87,0,5.25.23,7.13.68,1.88.45,3.54,1.21,4.97,2.26,3.3,2.37,4.96,5.77,4.96,10.2,0,4.72-2.31,8.19-6.93,10.41ZM160.9,629.81h18.89c2.68,0,4.69-.08,6.02-.25,1.33-.17,2.55-.48,3.68-.93,1.39-.57,2.47-1.46,3.23-2.66.77-1.2,1.15-2.59,1.15-4.17,0-2.11-.68-3.9-2.05-5.39-1.1-1.17-2.53-1.98-4.29-2.42-1.76-.44-4.46-.66-8.1-.66h-18.53v16.48ZM160.9,653.01h19.68c2.82,0,4.92-.09,6.28-.27,1.36-.18,2.63-.53,3.81-1.06,1.44-.67,2.55-1.68,3.36-3.02.8-1.34,1.2-2.9,1.2-4.67,0-2.35-.71-4.35-2.12-6-1.17-1.36-2.67-2.29-4.49-2.78-1.82-.49-4.62-.74-8.4-.74h-19.32v18.53Z"/>
      <path class="cls-2" d="M266.04,643.92h-26.22l-4.31,9.3c-.41.89-.61,1.51-.61,1.87,0,.72.71,1.2,2.13,1.44v1.15h-10.94v-1.15c.98-.17,1.73-.53,2.25-1.08.51-.55,1.19-1.75,2.03-3.59l17.96-38.75c.43-.93.65-1.57.65-1.9,0-.62-.59-1.09-1.76-1.4v-1.15h11.92v1.15c-1.17.38-1.76.89-1.76,1.51,0,.26.22.86.65,1.8l17.2,37.35c1.27,2.75,2.11,4.37,2.51,4.85.41.48,1.29.89,2.66,1.22v1.15h-11.64v-1.15c1.39-.19,2.09-.72,2.09-1.58,0-.38-.27-1.13-.79-2.23l-4.01-8.8ZM263.97,639.26l-11.04-24.22-11.03,24.22h22.06Z"/>
      <path class="cls-2" d="M356.43,612.9l-5.31,8.87-.97-.57c.22-.72.32-1.28.32-1.69,0-.98-1.53-2.21-4.6-3.7-4.21-2.06-8.81-3.09-13.79-3.09-6.7,0-12.14,1.85-16.3,5.56-4.24,3.78-6.36,8.67-6.36,14.67s2.2,10.94,6.61,14.89c4.26,3.85,9.52,5.78,15.76,5.78s11.49-1.78,16.16-5.33c2.11-1.6,3.16-2.74,3.16-3.41,0-.34-.2-.89-.61-1.65l.86-.68,6.39,7.76-.9.72c-.67-.6-1.22-.9-1.65-.9-.26,0-.72.25-1.36.76-2.2,1.66-4.03,2.9-5.48,3.73-1.45.83-3.04,1.53-4.76,2.11-3.57,1.22-7.49,1.84-11.78,1.84-8.26,0-14.97-2.3-20.15-6.89-5.43-4.81-8.15-10.95-8.15-18.42,0-5.89,1.7-10.99,5.1-15.3,5.31-6.75,13.27-10.13,23.88-10.13,7.01,0,13.8,1.86,20.36,5.57.43.24.73.36.9.36.31,0,.87-.45,1.69-1.36l.97.54Z"/>
      <path class="cls-2" d="M395.76,638.86v14.58c0,.98.16,1.68.47,2.1.31.42.92.75,1.83.99v1.15h-10.23v-1.15c.91-.24,1.52-.56,1.83-.97.31-.41.47-1.11.47-2.12v-40.54c0-1.01-.16-1.72-.47-2.14s-.92-.74-1.83-.95v-1.15h10.23v1.15c-.91.24-1.52.56-1.83.97-.31.41-.47,1.11-.47,2.12v20.37l26.45-20.7c.93-.72,1.4-1.3,1.4-1.76,0-.53-.45-.86-1.36-1.01v-1.15h12.94v1.15c-1.44.1-2.85.68-4.24,1.76l-19.92,15.45,21.93,27.75c.53.67,1.02,1.12,1.47,1.35.45.23,1.15.37,2.08.41v1.15h-11.96v-1.15c1.03-.24,1.54-.59,1.54-1.04,0-.29-.53-1.11-1.58-2.48l-17.75-22.69-11.02,8.54Z"/>
      <path class="cls-2" d="M512.95,613.36l-5.51,8.76-.93-.64c.43-.71.65-1.25.65-1.61,0-.74-1.28-1.79-3.84-3.15-4.93-2.67-9.98-4.01-15.15-4.01-6.01,0-11.07,1.69-15.18,5.06-4.71,3.83-7.07,8.99-7.07,15.5s2.25,11.39,6.75,15.14c4.14,3.47,9.43,5.2,15.87,5.2,3.4,0,6.64-.53,9.71-1.6,3.07-1.07,5.67-2.56,7.77-4.47v-9.05h-11.6c-1.01,0-1.72.16-2.14.47-.42.31-.74.92-.95,1.83h-1.15v-9.26h1.15c.22.91.53,1.52.95,1.83.42.31,1.13.47,2.14.47h19.28v1.15c-.91.24-1.52.56-1.83.97s-.47,1.11-.47,2.12v6.36c0,1.01.16,1.71.47,2.12.31.41.92.73,1.83.97v1.01c-2.71,2.42-5.25,4.3-7.65,5.64-5.2,2.92-11.12,4.38-17.78,4.38-8.19,0-14.81-2.21-19.86-6.64-2.49-2.18-4.46-4.79-5.93-7.83-1.65-3.47-2.48-7.13-2.48-10.99,0-5.53,1.62-10.44,4.85-14.72,2.99-3.95,7.01-6.83,12.07-8.65,3.57-1.27,7.4-1.9,11.49-1.9,3.59,0,6.92.43,9.98,1.29,3.06.86,6.37,2.29,9.91,4.27,1.03.57,1.66.86,1.9.86.38,0,.97-.5,1.76-1.51l.97.65Z"/>
      <path class="cls-2" d="M553.01,635.63v17.82c0,.98.16,1.68.47,2.1.31.42.92.75,1.83.99v1.15h-10.23v-1.15c.91-.24,1.52-.56,1.83-.97.31-.41.47-1.11.47-2.12v-40.54c0-1.01-.16-1.72-.47-2.14-.31-.42-.92-.74-1.83-.95v-1.15h26.9c3.69,0,6.6.2,8.75.59,2.14.4,4,1.08,5.58,2.07,1.63,1.01,2.94,2.39,3.95,4.14,1.15,1.99,1.72,4.23,1.72,6.72,0,3.74-1.24,6.79-3.72,9.15-2.48,2.36-5.88,3.71-10.22,4.04l12.46,19.36c.74,1.2,1.82,1.79,3.23,1.79v1.15h-11.35v-1.15c1.17-.19,1.76-.53,1.76-1,0-.24-.42-1.02-1.26-2.33l-11.13-17.57h-18.74ZM553.01,630.96h19.86c2.71,0,4.74-.11,6.12-.34,1.37-.23,2.59-.64,3.64-1.24,2.47-1.44,3.7-3.84,3.7-7.22s-1.27-5.82-3.81-7.25c-1.13-.62-2.38-1.04-3.75-1.26-1.38-.22-3.51-.32-6.41-.32h-19.36v17.63Z"/>
      <path class="cls-2" d="M650.99,607.8c8.64,0,15.61,2.26,20.9,6.79,2.97,2.51,5.2,5.59,6.68,9.23,1.22,2.99,1.83,6.21,1.83,9.66,0,4.67-1.33,9.04-3.99,13.11-2.92,4.5-6.98,7.74-12.17,9.73-3.88,1.48-8.27,2.23-13.18,2.23-8.59,0-15.53-2.26-20.79-6.79-2.94-2.54-5.17-5.61-6.68-9.23-1.22-2.97-1.83-6.09-1.83-9.37,0-4.86,1.32-9.34,3.95-13.43,2.87-4.43,6.94-7.66,12.21-9.7,3.69-1.41,8.04-2.15,13.07-2.23ZM650.99,612.72c-7.35,0-13.17,2.06-17.45,6.18-3.93,3.78-5.89,8.53-5.89,14.26s1.96,10.51,5.89,14.29c4.26,4.12,10.1,6.18,17.52,6.18s13.31-2.06,17.6-6.18c3.9-3.78,5.85-8.45,5.85-14.01,0-6.01-1.95-10.86-5.85-14.54-2.35-2.2-4.86-3.75-7.54-4.63-2.97-1.01-6.34-1.52-10.13-1.54Z"/>
      <path class="cls-2" d="M718.98,612.9v27.11c0,3.21.17,5.46.5,6.77s1.03,2.44,2.08,3.39c2.56,2.3,7.34,3.45,14.33,3.45,7.61,0,12.6-1.35,14.97-4.06.79-.91,1.32-1.99,1.58-3.25.26-1.26.4-3.36.4-6.3v-27.11c0-.98-.16-1.68-.47-2.1s-.92-.75-1.83-.99v-1.15h9.73v1.15c-.91.22-1.52.53-1.83.95-.31.42-.47,1.13-.47,2.14v28.23c0,3.47-.34,6.12-1.01,7.94-1.24,3.26-3.59,5.65-7.02,7.18-3.44,1.53-8.19,2.3-14.28,2.3-9.1,0-15.32-1.76-18.67-5.28-1.36-1.41-2.32-3.02-2.86-4.83-.54-1.81-.81-4.24-.81-7.31v-28.23c0-1.01-.16-1.72-.47-2.14-.31-.42-.92-.74-1.83-.95v-1.15h10.23v1.15c-.91.24-1.52.57-1.83.99s-.47,1.12-.47,2.1Z"/>
      <path class="cls-2" d="M799.58,614.87v38.57c0,.98.16,1.68.47,2.1.31.42.92.75,1.83.99v1.15h-9.73v-1.15c.93-.24,1.55-.56,1.85-.97.3-.41.45-1.11.45-2.12v-40.54c0-1.01-.16-1.72-.47-2.14-.31-.42-.92-.74-1.83-.95v-1.15h14.08v1.15c-1.13.38-1.69.92-1.69,1.62,0,.48.56,1.38,1.69,2.69l29.55,34.55v-35.77c0-1.01-.16-1.72-.47-2.14-.31-.42-.92-.74-1.83-.95v-1.15h9.73v1.15c-.91.22-1.52.53-1.83.95-.31.42-.47,1.13-.47,2.14v40.54c0,1.01.16,1.71.47,2.12.31.41.92.73,1.83.97v1.15h-11.32v-1.15c1.1-.29,1.65-.78,1.65-1.47,0-.53-.51-1.39-1.51-2.59l-32.46-37.6Z"/>
      <path class="cls-2" d="M878.34,653.94v-41.55c0-.72-.17-1.27-.5-1.65-.34-.38-.93-.69-1.8-.93v-1.15h25.86c5.87,0,10.35.81,13.47,2.44,3.93,2.03,6.92,5.17,8.98,9.41,1.8,3.71,2.69,7.92,2.69,12.64,0,5.58-1.21,10.39-3.63,14.44-2.18,3.59-4.94,6.17-8.28,7.74-3.34,1.57-7.75,2.35-13.23,2.35h-25.86v-1.15c.86-.24,1.46-.55,1.8-.93s.5-.93.5-1.65ZM883.98,653.01h17.7c5.2,0,9.05-.8,11.56-2.41,2.97-1.92,5.15-4.85,6.54-8.8.91-2.63,1.36-5.52,1.36-8.65,0-5.7-1.45-10.41-4.35-14.15-1.6-2.06-3.56-3.52-5.85-4.38-2.3-.86-5.39-1.29-9.26-1.29h-17.7v39.68Z"/>
    </g>
  </g>
</svg>