<svg xmlns="http://www.w3.org/2000/svg" width="800" height="600" viewBox="0 0 800 600">
  <defs>
    <linearGradient id="bg" x1="0" y1="0" x2="1" y2="1">
      <stop offset="0" stop-color="#14100d"/>
      <stop offset="1" stop-color="#0b0908"/>
    </linearGradient>
    <radialGradient id="glow" cx="0.5" cy="0.42" r="0.55">
      <stop offset="0" stop-color="#e9c873" stop-opacity="0.25"/>
      <stop offset="1" stop-color="#e9c873" stop-opacity="0"/>
    </radialGradient>
  </defs>
  <rect width="800" height="600" fill="url(#bg)"/>
  <rect width="800" height="600" fill="url(#glow)"/>
  <g fill="none" stroke="#c9a24b" stroke-width="3" opacity="0.85">
    <path d="M350 190 h100 v50 a50 50 0 0 1 -100 0 z"/>
    <path d="M350 205 h-28 a28 34 0 0 0 34 40" stroke-width="2"/>
    <path d="M450 205 h28 a28 34 0 0 1 -34 40" stroke-width="2"/>
    <line x1="400" y1="290" x2="400" y2="325"/>
    <line x1="365" y1="325" x2="435" y2="325"/>
    <path d="M400 215 l7 14 15 2 -11 11 3 15 -14 -7 -14 7 3 -15 -11 -11 15 -2 z" stroke-width="2"/>
  </g>
  <text x="400" y="470" text-anchor="middle" font-family="Georgia, serif" font-size="22" fill="#a89c88" letter-spacing="6">AWARDS</text>
</svg>
