<svg xmlns="http://www.w3.org/2000/svg" viewBox="0 0 40 40" width="40" height="40">
  <rect width="40" height="40" rx="8" fill="#0a0a0a"/>
  <g transform="translate(10.2745,7) scale(0.65491)" fill="#fff">
    <path d="M2.3,0c1.4,3,2.7,6.1,4,9.1,1.3,3.1,2.5,6.1,3.7,9.2v.2c0,0,0,.2,0,.2-.6,1.8-1.2,3.5-1.9,5.3-.6,1.8-1.3,3.5-1.9,5.3-1.3,3.5-2.7,7-4.3,10.4,1-3.6,2.1-7.2,3.2-10.7.6-1.8,1.2-3.5,1.8-5.3.6-1.8,1.2-3.5,1.9-5.3v.4c-1.2-3.1-2.3-6.2-3.4-9.4C4.3,6.3,3.3,3.2,2.3,0Z"/>
    <path d="M.9,4.3c1.9-.3,3.9-.4,5.8-.5,1.9-.1,3.9-.1,5.8-.1,1.9,0,3.9,0,5.8.1,1.9,0,3.9.2,5.8.5-1.9.3-3.9.4-5.8.5-1.9.1-3.9.1-5.8.1-1.9,0-3.9,0-5.8-.1-1.9,0-3.9-.2-5.8-.5Z"/>
    <path d="M20.3,2.5c-1.1,2.1-2.3,4.2-3.6,6.2-1.2,2-2.6,4-3.9,6-1.3,2-2.7,3.9-4.1,5.8-1.4,1.9-2.9,3.8-4.4,5.6,1.1-2.1,2.3-4.2,3.6-6.2,1.3-2,2.6-4,3.9-6,1.3-2,2.7-3.9,4.1-5.8,1.4-1.9,2.9-3.8,4.4-5.6Z"/>
    <path d="M3.6,12.3c2.3,2.1,4.5,4.3,6.7,6.5,2.2,2.2,4.3,4.5,6.4,6.8,2.1,2.3,4.2,4.6,6.2,7,2,2.4,4,4.7,5.9,7.2-2.3-2.1-4.5-4.3-6.7-6.5-2.2-2.2-4.3-4.5-6.4-6.8-2.1-2.3-4.2-4.6-6.2-7-2-2.4-4-4.7-5.9-7.2Z"/>
    <path d="M0,35.5c2.5-.3,5-.4,7.4-.5,2.5-.1,5-.1,7.4-.1,2.5,0,5,0,7.4.1,2.5,0,5,.2,7.4.5-2.5.3-5,.4-7.4.5-2.5.1-5,.1-7.4.1-2.5,0-5,0-7.4-.1-2.5,0-5-.2-7.4-.5Z"/>
  </g>
</svg>
