<svg width="699" height="324" viewBox="0 0 699 324" fill="none" xmlns="http://www.w3.org/2000/svg">
<path d="M152.474 271.344H156.844L153.725 285.99C152.859 290.072 154.111 290.846 156.401 290.846C158.692 290.846 160.252 290.072 161.079 285.99L164.179 271.344H168.549L165.411 286.164C165.209 287.288 164.846 288.377 164.333 289.395L168.279 290.459L167.509 294.194L161.619 292.491C159.858 293.614 157.791 294.155 155.708 294.039C149.105 294.039 148.508 290.169 149.221 286.764L152.474 271.344Z" fill="white"/>
<path d="M184.623 293.672C184.488 291.002 181.678 290.769 178.212 290.769H175.017L174.42 293.672H170.03L171.956 284.752H176.345L175.787 287.461C178.848 287.461 185.412 285.004 186.644 279.625C187.145 277.149 186.644 273.995 183.352 273.995C180.06 273.995 178.27 275.93 177.423 279.799V280.07H172.976V279.722C173.487 277.197 174.867 274.934 176.874 273.331C178.881 271.728 181.386 270.888 183.949 270.957C190.495 270.957 192.169 275.137 191.265 279.354C190.78 281.348 189.792 283.183 188.395 284.68C186.999 286.178 185.243 287.289 183.295 287.906C185.335 287.906 189.59 288.564 189.07 293.71L184.623 293.672Z" fill="white"/>
<path d="M201.16 286.57C194.537 286.57 194.075 282.179 194.787 278.831C195.205 276.597 196.406 274.588 198.172 273.168C199.938 271.748 202.153 271.012 204.413 271.092C211.016 271.092 211.44 275.871 210.728 279.257L209.823 283.513H214.636L213.942 286.686H209.187L207.705 293.787H203.412L204.894 286.686L201.16 286.57ZM206.261 279.915C207.108 275.832 206.377 274.111 203.797 274.111C201.699 274.111 200.062 275.387 199.35 278.58C198.541 282.178 199.697 283.339 202.141 283.339H205.51L206.261 279.915Z" fill="white"/>
<path d="M219.295 271.344H223.665L220.546 285.99C219.68 290.072 220.931 290.846 223.203 290.846C225.474 290.846 227.053 290.072 227.9 285.99L231 271.344H235.37L232.289 286.164C232.088 287.288 231.725 288.377 231.211 289.395L235.158 290.459L234.388 294.194L228.478 292.491C226.725 293.616 224.663 294.158 222.587 294.039C215.984 294.039 215.387 290.169 216.099 286.764L219.295 271.344Z" fill="white"/>
<path d="M245.15 294.039C238.74 294.039 236.487 291.156 237.354 287.035V286.706H241.916V286.939C241.223 290.034 243.63 291.002 245.767 291.002C248.77 291.002 251.041 289.667 251.542 287.326C251.715 286.339 251.927 283.456 246.883 283.456H238.066L238.701 280.322H247.422C251.272 280.322 252.293 278.252 252.485 276.878C252.736 275.175 251.58 273.898 249.193 273.898C248.22 273.809 247.245 274.059 246.433 274.604C245.62 275.15 245.018 275.959 244.727 276.897H240.28C241.146 273.666 244.939 271.093 249.675 270.899C254.41 270.706 257.587 272.834 257.086 276.375C256.96 277.479 256.521 278.524 255.822 279.385C255.122 280.245 254.191 280.886 253.14 281.231C253.701 281.392 254.224 281.665 254.678 282.035C255.131 282.404 255.505 282.863 255.777 283.382C256.048 283.901 256.213 284.47 256.259 285.055C256.305 285.64 256.233 286.228 256.047 286.784C255.392 290.344 251.734 294.039 245.15 294.039Z" fill="white"/>
<path d="M265.634 277.748C267.07 276.697 268.805 276.141 270.582 276.161C276.742 276.161 276.819 280.341 276.068 283.726L275.298 287.461H270.947L271.467 284.887C272.333 280.902 271.91 279.373 269.272 279.373C266.635 279.373 265.018 280.902 264.132 284.887L262.207 293.671H257.856L262.573 271.344H266.943L265.634 277.748Z" fill="white"/>
<path d="M296.05 286.765C295.338 290.17 293.086 294.039 286.425 294.039C279.764 294.039 279.205 290.17 279.918 286.765L282.536 274.46H277.723L278.378 271.306H287.541L284.422 285.991C283.575 290.073 284.808 290.847 287.098 290.847C289.389 290.847 290.949 290.073 291.776 285.991L292.527 282.508H296.878L296.05 286.765Z" fill="white"/>
<path d="M325.312 286.764C324.599 290.169 322.347 294.039 315.686 294.039C309.025 294.039 308.486 290.169 309.198 286.764L312.471 271.286H316.822L315.301 278.367H327.853L327.198 281.502H314.666L313.703 285.932C312.856 290.014 314.088 290.788 316.379 290.788C318.67 290.788 320.229 290.014 321.057 285.932L321.5 283.997H325.87L325.312 286.764Z" fill="white"/>
<path d="M346.411 282.508H342.022L342.753 279.025C343.619 274.943 342.407 274.169 340.116 274.169C337.825 274.169 336.265 274.943 335.418 279.025L332.396 293.671H328.045L331.299 278.193C332.011 274.788 334.244 270.919 340.924 270.919C347.604 270.919 348.163 274.788 347.45 278.193L346.411 282.508Z" fill="white"/>
<path d="M352.937 271.344H357.288L354.189 285.99C353.323 290.072 354.574 290.846 356.845 290.846C359.117 290.846 360.696 290.072 361.543 285.99L364.642 271.344H368.974L365.817 286.164C365.631 287.29 365.274 288.379 364.758 289.395L368.608 290.459L367.838 294.194L361.928 292.491C360.174 293.614 358.113 294.155 356.037 294.039C349.434 294.039 348.837 290.169 349.549 286.764L352.937 271.344Z" fill="white"/>
<path d="M386.916 271.344H391.267L389.765 278.425H394.559L393.904 281.579H389.11L388.225 286.164C387.883 288.445 386.708 290.516 384.928 291.973C383.147 293.429 380.891 294.166 378.599 294.039C372.092 294.039 371.515 289.608 372.227 286.3C372.603 284.045 373.792 282.009 375.568 280.581C377.344 279.154 379.582 278.434 381.853 278.561H385.491L386.916 271.344ZM381.14 281.579C378.715 281.579 377.29 282.798 376.636 286.358C375.981 289.918 376.905 290.846 379.196 290.846C381.776 290.846 383.046 289.473 384.028 285.39L384.817 281.521L381.14 281.579Z" fill="white"/>
<path d="M399.219 284.326C398.506 287.364 398.911 291.021 402.26 291.021C405.61 291.021 407.343 289.299 408.17 285.333V284.926H412.618V285.274C412.107 287.799 410.726 290.062 408.719 291.665C406.712 293.268 404.207 294.109 401.644 294.039C395.099 294.039 393.443 289.512 394.598 284.559C395.136 282.098 396.439 279.874 398.318 278.208C400.197 276.542 402.556 275.52 405.052 275.291C403.127 273.627 400.2 274.053 396.793 276.723H396.639L395.984 274.072C397.293 272.863 398.861 271.974 400.568 271.474C402.274 270.974 404.072 270.877 405.822 271.189C410.866 272.06 409.229 276.994 414.119 274.827H414.273L414.928 277.477C413.851 278.348 412.531 278.861 411.151 278.944C409.771 279.027 408.4 278.677 407.227 277.942C405.346 277.837 403.493 278.429 402.017 279.606C400.541 280.783 399.545 282.462 399.219 284.326Z" fill="white"/>
<path d="M429.326 276.993C429.865 274.381 427.786 273.995 426.689 273.995C425.907 274.002 425.145 274.237 424.493 274.669C423.841 275.101 423.326 275.714 423.012 276.432C422.607 277.825 422.838 279.373 425.649 280.399C429.057 281.617 433.061 283.436 431.829 287.905C430.962 291.001 427.978 294.039 422.203 294.039C418.199 294.039 414.907 292.104 415.966 287.19L416.062 286.764H420.278L420.182 287.151C420.014 287.607 419.964 288.098 420.036 288.579C420.109 289.06 420.301 289.514 420.594 289.901C420.888 290.287 421.275 290.592 421.718 290.788C422.16 290.984 422.645 291.064 423.127 291.02C424.008 291.112 424.895 290.917 425.657 290.464C426.419 290.011 427.017 289.325 427.362 288.505C428.017 286.764 426.727 285.545 424.09 284.636C420.028 283.127 417.332 281.366 418.699 276.897C419.39 275.127 420.612 273.617 422.195 272.576C423.779 271.536 425.645 271.017 427.536 271.092C431.713 271.092 434.466 273.279 433.619 277.284H429.249L429.326 276.993Z" fill="white"/>
<path d="M439.202 271.344H443.553L440.454 285.99C439.587 290.072 440.839 290.846 443.11 290.846C445.382 290.846 446.961 290.072 447.808 285.99L450.907 271.344H455.277L452.12 286.164C451.934 287.29 451.577 288.379 451.061 289.395L455.008 290.459L454.238 294.194L448.328 292.491C446.574 293.614 444.513 294.155 442.437 294.039C435.833 294.039 435.237 290.169 435.949 286.764L439.202 271.344Z" fill="white"/>
<path d="M468.041 287.344C466.598 288.38 464.866 288.929 463.093 288.912C456.933 288.912 456.817 285.042 457.529 281.637L459.724 271.344H464.075L462.15 280.476C461.283 284.481 461.476 285.7 464.402 285.7C467.02 285.7 468.618 284.481 469.504 280.476L469.908 278.425H474.278L471.005 293.671H466.655L468.041 287.344Z" fill="white"/>
<path d="M479.938 271.344H484.289L481.189 285.99C480.323 290.072 481.574 290.846 483.846 290.846C486.117 290.846 487.696 290.072 488.524 285.99L491.643 271.344H496.032L492.894 286.164C492.708 287.29 492.351 288.379 491.835 289.395L495.782 290.459L495.012 294.194L489.101 292.491C487.347 293.614 485.287 294.155 483.211 294.039C476.588 294.039 476.011 290.169 476.723 286.764L479.938 271.344Z" fill="white"/>
<path d="M515.977 286.765C515.264 290.17 513.012 294.039 506.351 294.039C499.69 294.039 499.151 290.17 499.863 286.765L502.462 274.46H497.669L498.323 271.306H507.583L504.464 285.991C503.598 290.073 504.849 290.847 507.121 290.847C509.393 290.847 510.971 290.073 511.818 285.991L512.55 282.508H516.92L515.977 286.765Z" fill="white"/>
<path d="M532.436 271.344H536.787L533.687 285.99C532.821 290.072 534.072 290.846 536.344 290.846C538.616 290.846 540.194 290.072 541.041 285.99L544.141 271.344H548.511L545.354 286.164C545.168 287.29 544.811 288.379 544.295 289.395L548.241 290.459L547.471 294.194L541.561 292.491C539.807 293.614 537.747 294.155 535.67 294.039C529.067 294.039 528.47 290.169 529.182 286.764L532.436 271.344Z" fill="white"/>
<path d="M561.276 287.344C559.834 288.38 558.102 288.929 556.329 288.912C550.168 288.912 550.053 285.042 550.765 281.637L552.96 271.344H557.311L555.385 280.476C554.519 284.481 554.712 285.7 557.638 285.7C560.237 285.7 561.854 284.481 562.74 280.476L563.144 278.425H567.514L564.299 293.671H559.948L561.276 287.344Z" fill="white"/>
<path d="M573.173 271.344H577.524L574.424 285.99C573.558 290.072 574.809 290.846 577.081 290.846C579.352 290.846 580.931 290.072 581.759 285.99L584.878 271.344H589.228L586.09 286.164C585.905 287.29 585.548 288.379 585.032 289.395L588.882 290.459L588.112 294.194L582.202 292.491C580.448 293.614 578.387 294.155 576.311 294.039C569.688 294.039 569.111 290.169 569.823 286.764L573.173 271.344Z" fill="white"/>
<path d="M607.209 283.398H612.003L611.329 286.571H606.516L605.034 293.671H600.683L603.763 279.025C604.629 274.943 603.416 274.169 601.126 274.169C598.835 274.169 597.275 274.943 596.409 279.025L595.677 282.508H591.307L592.231 278.251C592.944 274.846 595.158 270.976 601.857 270.976C608.557 270.976 609.096 274.846 608.383 278.251L607.209 283.398Z" fill="white"/>
<path d="M629.444 286.764C628.732 290.169 626.48 294.039 619.819 294.039C613.158 294.039 612.619 290.169 613.331 286.764L616.584 271.286H620.954L619.434 278.367H631.966L631.331 281.502H618.779L617.836 285.932C616.969 290.014 618.221 290.788 620.512 290.788C622.803 290.788 624.362 290.014 625.19 285.932L625.633 283.997H629.983L629.444 286.764Z" fill="white"/>
<path d="M649.659 286.764C648.947 290.169 646.694 294.039 640.033 294.039C633.372 294.039 632.833 290.169 633.545 286.764L636.818 271.286H641.169L638.05 285.932C637.203 290.014 638.435 290.788 640.726 290.788C643.017 290.788 644.576 290.014 645.404 285.932L648.523 271.286H657.744L657.051 274.44H652.258L649.659 286.764Z" fill="white"/>
<path d="M664.77 277.748C666.206 276.697 667.942 276.141 669.718 276.161C675.898 276.161 675.955 280.341 675.204 283.726L674.434 287.461H670.084L670.603 284.887C671.47 280.902 671.065 279.373 668.409 279.373C665.752 279.373 664.154 280.902 663.269 284.887L661.344 293.671H656.993L661.709 271.344H666.06L664.77 277.748Z" fill="white"/>
<path d="M682 271.344H686.351L683.232 285.99C682.385 290.072 683.617 290.846 685.908 290.846C688.199 290.846 689.758 290.072 690.586 285.99L693.705 271.344H698.056L694.918 286.164C694.723 287.287 694.366 288.376 693.859 289.395L697.709 290.459L696.939 294.194L691.048 292.491C689.294 293.614 687.234 294.155 685.157 294.039C678.535 294.039 677.938 290.169 678.65 286.764L682 271.344Z" fill="white"/>
<path d="M354.084 118.991C356.913 115.07 360.173 111.482 363.801 108.295C364.992 107.105 366.502 106.287 368.146 105.942C374.707 105.586 379.388 112.413 377.172 111.112C373.058 109.329 365.451 120.31 360.29 126.674C355.13 133.038 350.449 140.097 344.58 148.707C334.383 164.251 325.606 179.207 322.787 186.748C327.823 187.336 347.275 168.137 354.191 161.791C354.237 161.738 354.294 161.693 354.357 161.662C354.421 161.63 354.49 161.611 354.561 161.606C354.632 161.601 354.703 161.61 354.77 161.633C354.837 161.655 354.899 161.691 354.953 161.738C355.007 161.785 355.05 161.842 355.082 161.906C355.114 161.969 355.133 162.039 355.138 162.11C355.142 162.181 355.133 162.253 355.111 162.32C355.088 162.388 355.053 162.451 355.006 162.504C349.279 169.1 328.886 190.545 321.847 193.13C321.232 193.359 320.571 193.437 319.92 193.356C319.269 193.276 318.646 193.039 318.105 192.666C316.327 191.472 314.875 189.848 313.885 187.942C313.567 187.406 313.442 186.777 313.53 186.16C313.53 182.594 318.85 171.203 333.213 148.725C340.395 137.263 347.896 127.013 354.084 118.991Z" fill="white"/>
<path d="M363.921 163.821C363.141 163.877 362.372 164.033 361.633 164.285C360.216 165.09 359.094 166.328 358.433 167.817C357.329 169.719 352.689 181.307 351.025 185.031C343.112 202.457 333.763 219.196 323.073 235.074C319.681 239.983 315.966 244.66 311.953 249.075C309.073 252.272 306.737 254.158 304.849 254.27C302.723 254.319 300.64 253.678 298.909 252.445C297.179 251.212 295.894 249.452 295.249 247.429C295.568 247.803 295.969 248.099 296.422 248.293C296.874 248.487 297.365 248.574 297.857 248.548C300.289 248.404 304.705 244.328 310.209 237.024C324.433 217.844 346.161 180.843 351.409 166.123C351.558 165.739 351.686 165.371 351.793 165.02C352.785 162.319 354.369 159.697 355.873 158.978C356.727 158.757 357.626 158.785 358.465 159.058C359.916 159.604 361.263 160.393 362.449 161.392C363.473 162.287 364.225 163.773 363.921 163.821Z" fill="white"/>
<path d="M513.712 163.885C512.933 163.941 512.163 164.097 511.423 164.348C510.006 165.154 508.884 166.392 508.222 167.881C507.053 169.783 502.427 181.37 500.826 185.031C492.921 202.459 483.573 219.198 472.877 235.073C469.485 239.982 465.768 244.659 461.752 249.075C458.871 252.271 456.534 254.157 454.645 254.269C452.517 254.326 450.429 253.688 448.696 252.454C446.963 251.22 445.68 249.456 445.04 247.428C445.355 247.809 445.756 248.108 446.209 248.303C446.663 248.498 447.157 248.581 447.65 248.547C450.067 248.403 454.485 244.328 459.991 237.023C474.222 217.844 495.96 180.843 501.21 166.123C501.349 165.739 501.477 165.371 501.595 165.02C502.587 162.319 504.172 159.697 505.677 158.978C506.531 158.757 507.431 158.785 508.27 159.058C509.723 159.6 511.072 160.39 512.256 161.392C513.264 162.351 514.016 163.837 513.712 163.885Z" fill="white"/>
<path d="M697.063 158.547C688.604 166.783 668.354 186.16 659.825 188.388L686.175 151.434C687.292 151.577 687.948 152.272 687.948 151.72C687.948 148.154 682.398 142.646 679.206 142.646C678.822 142.64 678.441 142.711 678.085 142.855C677.729 142.999 677.405 143.213 677.131 143.484C673.674 146.247 668.531 152.54 663.531 159.652L627.747 188.174C631.063 179.261 641.472 161.56 653.547 143.145C660.481 132.967 666.173 124.731 672.131 117.066C676.178 111.673 680.523 106.513 685.147 101.611C687.292 99.8281 683.941 97.065 683.249 95.9063C675.571 95.6568 668.141 95.0507 661.031 94.1237C605.883 87.1538 568.503 62.9282 566.623 47.0095C565.506 38.0965 580.49 33.2122 581.607 32.7487C581.448 32.635 581.252 32.5843 581.057 32.6061C571.748 32.7487 555.948 37.0804 556.232 49.3447C556.729 67.1708 579.391 82.2338 611.008 91.5568C630.323 97.0497 650.2 100.303 670.251 101.254H670.411C668.638 103.274 666.799 105.532 664.896 108.028C657.697 117.494 648.813 129.633 640.213 143.163C623.278 169.795 616.912 183.325 616.912 187.496C616.822 188.223 616.965 188.96 617.32 189.6C618.5 191.844 620.219 193.756 622.321 195.162C622.958 195.611 623.695 195.897 624.467 195.996C625.24 196.096 626.024 196.005 626.754 195.732C632.996 193.433 648.033 178.619 658.14 168.048C652.608 176.854 648.263 185.429 648.263 189.172C648.263 191.686 651.721 195.179 653.938 195.875C654.486 195.986 655.045 196.034 655.604 196.017C664.205 195.304 686.264 172.576 698.339 159.474C698.73 158.975 698.091 157.852 697.063 158.547Z" fill="white"/>
<path d="M298.351 157.87C290.017 165.98 270.086 185.054 261.751 187.265C263.383 181.632 282.108 150.311 287.694 150.864C288.793 151.007 289.467 151.684 289.467 151.149C289.467 147.709 283.988 142.236 280.849 142.236C280.472 142.226 280.096 142.293 279.745 142.434C279.395 142.575 279.076 142.787 278.81 143.056C275.441 145.748 270.44 151.827 265.564 158.761C256.698 167.282 237.901 185.161 229.851 187.283C231.5 181.65 250.208 150.329 255.811 150.882C256.893 151.024 257.584 151.702 257.584 151.167C257.584 147.727 252.123 142.254 248.984 142.254C248.604 142.245 248.226 142.313 247.873 142.454C247.52 142.595 247.198 142.806 246.927 143.074C243.576 145.766 238.575 151.844 233.699 158.779C224.833 167.3 206.019 185.179 197.986 187.3C199.617 181.667 218.325 150.347 223.928 150.9C225.028 151.042 225.702 151.72 225.702 151.185C225.702 147.744 220.24 142.272 217.101 142.272C216.721 142.263 216.343 142.331 215.99 142.472C215.637 142.613 215.315 142.824 215.044 143.092C206.302 150.097 186.495 180.027 186.495 187.996C186.495 190.473 189.918 193.896 192.099 194.591C192.641 194.703 193.195 194.751 193.748 194.734C200.681 194.163 216.499 179.047 228.539 166.497C222.882 175.41 218.378 184.199 218.378 187.996C218.378 190.473 221.801 193.896 223.982 194.591C224.518 194.704 225.065 194.752 225.613 194.734C232.564 194.163 248.381 179.047 260.404 166.497C254.747 175.41 250.261 184.199 250.261 187.996C250.261 190.473 253.666 193.896 255.847 194.591C256.389 194.703 256.942 194.751 257.496 194.734C265.954 194.039 287.641 171.649 299.575 158.743C300 158.28 299.309 157.174 298.351 157.87Z" fill="white"/>
<path d="M475.693 157.87C467.359 165.98 447.41 185.054 439.094 187.265C440.725 181.632 459.433 150.311 465.036 150.864C466.135 151.007 466.809 151.684 466.809 151.149C466.809 147.709 461.348 142.236 458.209 142.236C457.831 142.226 457.456 142.293 457.105 142.434C456.754 142.575 456.436 142.787 456.17 143.056C452.801 145.748 447.8 151.827 442.924 158.761C434.058 167.282 415.261 185.161 407.211 187.283C408.842 181.65 427.568 150.329 433.171 150.882C434.253 151.024 434.944 151.702 434.944 151.167C434.944 147.727 429.483 142.254 426.326 142.254C425.949 142.246 425.574 142.314 425.223 142.455C424.873 142.596 424.554 142.806 424.287 143.074C420.918 145.766 415.935 151.844 411.059 158.779C402.193 167.3 383.378 185.179 375.328 187.3C376.977 181.667 395.685 150.347 401.288 150.9C402.388 151.042 403.061 151.72 403.061 151.185C403.061 147.744 397.6 142.272 394.461 142.272C394.081 142.263 393.703 142.331 393.35 142.472C392.997 142.613 392.675 142.824 392.404 143.092C383.662 150.097 363.855 180.027 363.855 187.996C363.855 190.473 367.277 193.896 369.459 194.591C370.001 194.703 370.554 194.751 371.108 194.734C378.041 194.163 393.858 179.047 405.899 166.497C400.242 175.41 395.738 184.199 395.738 187.996C395.738 190.473 399.143 193.896 401.341 194.591C401.877 194.704 402.425 194.752 402.973 194.734C409.906 194.163 425.741 179.047 437.764 166.497C432.107 175.41 427.603 184.199 427.603 187.996C427.603 190.473 431.025 193.896 433.206 194.591C433.749 194.703 434.302 194.751 434.855 194.734C443.314 194.039 465.001 171.649 476.917 158.743C477.342 158.28 476.651 157.174 475.693 157.87Z" fill="white"/>
<path d="M507.415 118.991C510.244 115.07 513.504 111.482 517.133 108.295C518.323 107.105 519.833 106.287 521.477 105.942C528.038 105.586 532.719 112.413 530.503 111.112C526.389 109.329 518.782 120.31 513.622 126.674C508.461 133.038 503.78 140.097 497.911 148.707C487.715 164.251 478.937 179.207 476.118 186.748C481.154 187.336 500.606 168.137 507.522 161.791C507.62 161.696 507.75 161.64 507.886 161.636C508.023 161.631 508.156 161.678 508.261 161.767C508.365 161.856 508.432 161.981 508.449 162.117C508.467 162.254 508.433 162.392 508.355 162.504C502.61 169.1 482.217 190.545 475.178 193.13C474.563 193.359 473.902 193.437 473.251 193.356C472.6 193.276 471.977 193.039 471.436 192.666C469.658 191.472 468.206 189.848 467.216 187.942C466.898 187.406 466.773 186.777 466.861 186.16C466.861 182.594 472.181 171.203 486.544 148.725C493.814 137.263 501.262 127.013 507.415 118.991Z" fill="white"/>
<path d="M625.975 157.87C617.641 165.98 597.71 185.054 589.376 187.265C591.007 181.632 609.715 150.311 615.318 150.864C616.418 151.007 617.091 151.684 617.091 151.149C617.091 147.709 611.63 142.236 608.491 142.236C608.114 142.226 607.738 142.293 607.387 142.434C607.036 142.575 606.718 142.787 606.452 143.056C603.083 145.748 598.082 151.827 593.206 158.761C584.34 167.282 565.543 185.161 557.493 187.283C559.142 181.65 577.85 150.329 583.453 150.882C584.535 151.024 585.226 151.702 585.226 151.167C585.226 147.727 579.765 142.254 576.626 142.254C576.246 142.245 575.868 142.313 575.515 142.454C575.162 142.595 574.84 142.806 574.569 143.074C571.2 145.766 566.217 151.844 561.341 158.779C552.475 167.3 533.661 185.179 525.628 187.3C527.259 181.667 545.967 150.347 551.57 150.9C552.67 151.042 553.344 151.72 553.344 151.185C553.344 147.744 547.882 142.272 544.743 142.272C544.363 142.263 543.985 142.331 543.632 142.472C543.279 142.613 542.957 142.824 542.686 143.092C533.944 150.097 514.137 180.027 514.137 187.996C514.137 190.473 517.56 193.896 519.741 194.591C520.283 194.703 520.836 194.751 521.39 194.734C528.323 194.163 544.141 179.047 556.181 166.497C550.524 175.41 546.02 184.199 546.02 187.996C546.02 190.473 549.442 193.896 551.624 194.591C552.16 194.704 552.707 194.752 553.255 194.734C560.188 194.163 576.023 179.047 588.046 166.497C582.389 175.41 577.903 184.199 577.903 187.996C577.903 190.473 581.308 193.896 583.489 194.591C584.031 194.703 584.584 194.751 585.138 194.734C593.596 194.039 615.283 171.649 627.217 158.743C627.624 158.28 626.933 157.174 625.975 157.87Z" fill="white"/>
<path d="M291.541 200.171C304.912 197.773 318.461 196.52 332.042 196.427C334.276 196.427 336.369 196.427 338.727 196.552C387.278 198.05 437.426 212.114 437.426 226.553C437.426 230.422 433.879 234.397 425.545 238.016C429.393 235.52 431.113 232.917 431.113 230.297C431.113 216.036 381.586 200.545 336.493 199.547C334.525 199.547 332.663 199.422 330.801 199.422C316.765 199.357 302.765 200.858 289.059 203.896C274.199 223.826 245.224 257.375 222.066 257.375C217.101 257.375 211.427 255.129 211.427 248.658C211.447 247.08 211.741 245.517 212.295 244.041C217.119 228.978 247.849 210.546 278.437 202.453C281.647 197.729 287.303 189.012 292.304 180.544C307.039 155.392 312.235 144.696 317.129 144.696C319.966 144.696 324.807 149.919 324.807 152.914C324.807 153.039 324.807 153.164 324.683 153.164C324.296 152.937 323.878 152.769 323.442 152.664C320.835 152.664 317.626 157.638 309.699 170.829C298.723 189.083 294.645 195.055 291.541 200.171ZM275.582 206.517C249.072 214.36 221.091 232.668 217.065 245.36C216.214 248.23 218.307 250.583 221.906 250.333C240.153 249.228 265.422 218.71 275.565 206.588L275.582 206.517Z" fill="white"/>
<path d="M234.801 22.0053C227.046 19.1678 219.413 23.2604 216.147 24.6246C217.848 23.9425 221.984 24.1471 227.032 25.4431C227.685 25.6478 230.665 26.0297 229.862 28.267C223.998 44.3373 184.118 70.871 136.808 94.1989C134.904 95.1811 132.971 96.1087 130.999 97.0637C87.4582 118.072 38.7203 136.012 4.78601 140.718C4.24176 140.718 3.67029 139.763 4.17373 138.303C4.75276 136.965 5.45901 135.686 6.28271 134.484C4.35061 134.852 1.26197 138.876 0.377554 141.305C-1.25521 145.834 2.85391 150.09 4.21454 150.404C25.2364 157.143 86.2744 148.221 129.638 144.47C129.339 139.327 129.134 134.156 129.094 128.986C96.7241 130.487 57.2249 137.853 26.597 140.95C61.8513 131.477 96.4044 119.552 130.005 105.263C132.169 104.335 134.318 103.425 136.455 102.534C186.281 80.8024 229.753 55.0326 240.489 32.5506C242.19 28.8809 238.502 23.3286 234.801 22.0053ZM169.722 132.192C161.028 129.463 149.843 128.549 137.285 128.754C137.652 133.761 138.128 138.767 138.645 143.76C153.939 142.642 166.13 142.505 172.144 144.374C178.553 146.352 178.947 154.183 176.893 160.008C172.076 173.391 158.728 186.842 142.523 198.792C139.911 200.729 137.189 202.598 134.441 204.44C102.82 225.694 64.6812 240.537 57.3065 238.218C55.3064 237.686 54.2859 236.008 55.3744 232.952C56.15 230.837 57.4018 228.354 57.3337 227.972C56.6942 227.74 50.6122 233.047 48.9794 237.522C46.5031 244.343 49.7686 248.967 55.1703 250.741C69.2937 255.229 104.589 239.636 134.713 216.636C137.217 214.699 139.707 212.721 142.115 210.674C160.116 195.668 175.301 178.22 181.369 161.263C184.771 151.741 183.682 136.489 169.722 132.192Z" fill="white"/>
<path d="M237.046 16.2134C234.74 12.4108 231.503 9.25828 227.641 7.05283C197.659 -11.2954 166.072 8.41196 149.382 40.202C140.01 57.7985 133.817 76.911 131.088 96.6602C130.681 99.3784 130.382 102.097 130.11 104.815C129.383 112.676 129.075 120.57 129.186 128.464C131.972 128.328 134.69 128.26 137.34 128.219C136.613 119.509 136.341 110.767 136.525 102.029C136.525 99.3105 136.688 96.5922 136.865 93.874C138.088 76.2053 141.989 58.7269 151.108 41.3844C167.296 10.5458 197.727 -9.80036 227.029 8.15373C230.73 10.2033 233.849 13.1588 236.095 16.7434C236.802 17.8171 237.073 18.8773 237.318 18.8773C237.794 18.7957 237.862 17.9123 237.046 16.2134ZM138.686 143.17C135.805 143.369 132.819 143.604 129.729 143.876C130.069 149.68 130.545 155.483 131.088 161.246C132.448 175.462 133.902 189.584 134.486 203.624C134.649 207.701 134.758 211.778 134.758 215.774C134.649 237.751 131.401 259.742 120.365 282.032C104.884 313.142 73.9235 332.85 44.6751 315.072C40.9711 313.079 37.8369 310.174 35.5689 306.632C34.7806 305.273 34.6855 304.321 34.2098 304.417C33.7341 304.512 34.0059 305.98 34.8894 307.543C36.3164 310.125 38.7493 313.074 44.0091 316.363C74.0323 334.725 106.339 315.208 122.322 283.214C133.942 260.386 140.699 235.395 142.165 209.821C142.437 205.853 142.573 201.907 142.573 197.983C142.593 186.298 141.994 174.621 140.779 162.999C140.113 156.435 139.366 149.816 138.686 143.17Z" fill="url(#paint0_linear_242_266)"/>
<path d="M138.857 144.132C135.927 144.347 132.891 144.601 129.75 144.894C129.446 139.367 129.239 133.811 129.197 128.254C132.03 128.107 134.794 128.034 137.489 127.99C137.889 133.371 138.373 138.751 138.857 144.132Z" fill="url(#paint1_linear_242_266)"/>
<defs>
<linearGradient id="paint0_linear_242_266" x1="673.871" y1="4.99999" x2="608.837" y2="401.66" gradientUnits="userSpaceOnUse">
<stop stop-color="white"/>
<stop offset="0.25" stop-color="#D8C8A7"/>
<stop offset="0.515" stop-color="#AB8942"/>
<stop offset="0.745" stop-color="#E1D4BB"/>
<stop offset="1" stop-color="white"/>
</linearGradient>
<linearGradient id="paint1_linear_242_266" x1="134.027" y1="127.99" x2="134.027" y2="144.894" gradientUnits="userSpaceOnUse">
<stop stop-color="#B99D62"/>
<stop offset="1" stop-color="#B19250"/>
</linearGradient>
</defs>
</svg>
